<svg t="1637658726469" class="icon" viewBox="0 0 1024 1024" version="1.1" xmlns="http://www.w3.org/2000/svg" p-id="1144" width="200" height="200"><path d="M648.3 987.2h-499c-16.6 0-30-13.4-30-30V91.8c0-30.3 24.7-55 55-55h449c30.3 0 55 24.7 55 55v865.5c0 16.5-13.5 29.9-30 29.9z m-469-60h439V96.8h-439v830.4z" fill="#707070" p-id="1145"></path><path d="M508.6 346.9H288.9c-16.6 0-30-13.4-30-30s13.4-30 30-30h219.7c16.6 0 30 13.4 30 30s-13.4 30-30 30zM508.6 566.1H288.9c-16.6 0-30-13.4-30-30s13.4-30 30-30h219.7c16.6 0 30 13.4 30 30s-13.4 30-30 30z" fill="#E99020" p-id="1146"></path><path d="M898.3 987.2H648.9c-16.6 0-30-13.4-30-30V201.4c0-16.5 8.3-31.7 22.1-40.7 13.9-9 31.1-10.3 46.2-3.5l205.7 92.3c21.5 9.7 35.5 31.2 35.5 54.8v653c-0.1 16.5-13.5 29.9-30.1 29.9z m-219.4-60h189.5v-623l-189.5-85.1v708.1zM488.3 975.6c-16.6 0-30-13.4-30-30V804.7h-119v140.9c0 16.6-13.4 30-30 30s-30-13.4-30-30V774.7c0-16.6 13.4-30 30-30h179c16.6 0 30 13.4 30 30v170.9c0 16.6-13.5 30-30 30z" fill="#707070" p-id="1147"></path></svg>