<svg t="1637654498053" class="icon" viewBox="0 0 1024 1024" version="1.1" xmlns="http://www.w3.org/2000/svg" p-id="1004" width="200" height="200"><path d="M801 458.1c-59 0-107-48-107-107s48-107 107-107 107 48 107 107c-0.1 59-48.1 107-107 107z m0-164c-31.4 0-57 25.6-57 57s25.6 57 57 57 57-25.6 57-57c-0.1-31.4-25.6-57-57-57z" fill="#F39518" p-id="1005"></path><path d="M846 994.9H178c-82.1 0-148.9-66.8-148.9-148.9V178C29.1 95.9 95.9 29.1 178 29.1h668c82.1 0 148.9 66.8 148.9 148.9v668c0 82.1-66.8 148.9-148.9 148.9zM178 89.1c-49 0-88.9 39.9-88.9 88.9v668c0 49 39.9 88.9 88.9 88.9h668c49 0 88.9-39.9 88.9-88.9V178c0-49-39.9-88.9-88.9-88.9H178z" fill="#707070" p-id="1006"></path><path d="M59.3 719c-6.4 0-12.8-2.4-17.7-7.3-9.8-9.8-9.8-25.6 0-35.4l228-228c9.8-9.8 25.6-9.8 35.4 0l184.5 184.5c9.8 9.8 9.8 25.6 0 35.4-9.8 9.8-25.6 9.8-35.4 0L287.3 501.4 77 711.7c-4.9 4.9-11.3 7.3-17.7 7.3z" fill="#707070" p-id="1007"></path><path d="M946.8 883.6c-6.4 0-12.8-2.4-17.7-7.3L606.4 553.5 493.5 666.3c-9.8 9.8-25.6 9.8-35.4 0-9.8-9.8-9.8-25.6 0-35.4l130.5-130.5c4.7-4.7 11-7.3 17.7-7.3s13 2.6 17.7 7.3l340.4 340.4c9.8 9.8 9.8 25.6 0 35.4-4.8 4.9-11.2 7.4-17.6 7.4z" fill="#707070" p-id="1008"></path><path d="M29.1 178h60v278h-60z" fill="#F39518" p-id="1009"></path></svg>